<svg width="14" height="14" viewBox="0 0 14 14" fill="none" xmlns="http://www.w3.org/2000/svg">
<path d="M3.55003 13.9505C2.71745 13.9126 2.26516 13.7741 1.96434 13.6567C1.56573 13.5015 1.28154 13.3168 0.982376 13.018C0.683211 12.7193 0.498053 12.4351 0.343686 12.0365C0.22635 11.7357 0.0877939 11.2834 0.0499302 10.4508C0.00832169 9.55081 0 9.28077 0 7.00062C0 4.72048 0.00915386 4.45086 0.0495141 3.55003C0.0873778 2.71745 0.226766 2.266 0.34327 1.96434C0.498469 1.56573 0.683627 1.28154 0.98196 0.98196C1.28071 0.683211 1.56489 0.497637 1.96392 0.34327C2.26475 0.225934 2.71703 0.0873778 3.54962 0.0495141C4.45003 0.00832169 4.72048 0 6.99979 0C9.27994 0 9.54956 0.00915386 10.4504 0.0495141C11.283 0.0873778 11.7344 0.226766 12.0361 0.34327C12.4347 0.497637 12.7189 0.683211 13.018 0.98196C13.3172 1.28071 13.5015 1.56531 13.6567 1.96392C13.7741 2.26475 13.9126 2.71703 13.9505 3.54962C13.9917 4.45044 14 4.72006 14 7.00021C14 9.27952 13.9917 9.54997 13.9505 10.4508C13.9126 11.2834 13.7732 11.7357 13.6567 12.0365C13.5015 12.4351 13.3168 12.7193 13.018 13.018C12.7193 13.3168 12.4347 13.5015 12.0361 13.6567C11.7353 13.7741 11.283 13.9126 10.4504 13.9505C9.55039 13.9917 9.27994 14 6.99979 14C4.72048 14 4.45003 13.9921 3.55003 13.9505" fill="url(#paint0_radial)"/>
<path d="M3.55003 13.9505C2.71745 13.9126 2.26516 13.7741 1.96434 13.6567C1.56573 13.5015 1.28154 13.3168 0.982376 13.018C0.683211 12.7193 0.498053 12.4351 0.343686 12.0365C0.22635 11.7357 0.0877939 11.2834 0.0499302 10.4508C0.00832169 9.55081 0 9.28077 0 7.00062C0 4.72048 0.00915386 4.45086 0.0495141 3.55003C0.0873778 2.71745 0.226766 2.266 0.34327 1.96434C0.498469 1.56573 0.683627 1.28154 0.98196 0.98196C1.28071 0.683211 1.56489 0.497637 1.96392 0.34327C2.26475 0.225934 2.71703 0.0873778 3.54962 0.0495141C4.45003 0.00832169 4.72048 0 6.99979 0C9.27994 0 9.54956 0.00915386 10.4504 0.0495141C11.283 0.0873778 11.7344 0.226766 12.0361 0.34327C12.4347 0.497637 12.7189 0.683211 13.018 0.98196C13.3172 1.28071 13.5015 1.56531 13.6567 1.96392C13.7741 2.26475 13.9126 2.71703 13.9505 3.54962C13.9917 4.45044 14 4.72006 14 7.00021C14 9.27952 13.9917 9.54997 13.9505 10.4508C13.9126 11.2834 13.7732 11.7357 13.6567 12.0365C13.5015 12.4351 13.3168 12.7193 13.018 13.018C12.7193 13.3168 12.4347 13.5015 12.0361 13.6567C11.7353 13.7741 11.283 13.9126 10.4504 13.9505C9.55039 13.9917 9.27994 14 6.99979 14C4.72048 14 4.45003 13.9921 3.55003 13.9505" fill="url(#paint1_radial)"/>
<path d="M5.28112 7.02983C5.28112 6.07238 6.05708 5.296 7.01453 5.296C7.97198 5.296 8.74836 6.07238 8.74836 7.02983C8.74836 7.98728 7.97198 8.76365 7.01453 8.76365C6.05708 8.76365 5.28112 7.98728 5.28112 7.02983V7.02983ZM4.34385 7.02983C4.34385 8.50485 5.53951 9.70051 7.01453 9.70051C8.48955 9.70051 9.68521 8.50485 9.68521 7.02983C9.68521 5.55481 8.48955 4.35915 7.01453 4.35915C5.53951 4.35915 4.34389 5.55473 4.34389 7.02983H4.34385ZM9.16685 4.25326C9.1668 4.3767 9.20336 4.49738 9.2719 4.60004C9.34044 4.70271 9.43788 4.78274 9.55191 4.83003C9.66593 4.87731 9.79142 4.88972 9.9125 4.86569C10.0336 4.84165 10.1448 4.78226 10.2321 4.69501C10.3194 4.60776 10.3789 4.49657 10.4031 4.37551C10.4272 4.25445 10.4149 4.12896 10.3677 4.01489C10.3205 3.90083 10.2405 3.80332 10.1379 3.7347C10.0353 3.66608 9.91467 3.62943 9.79123 3.62938H9.79098C9.62552 3.62946 9.46685 3.6952 9.34983 3.81218C9.23281 3.92915 9.167 4.08779 9.16685 4.25326V4.25326ZM4.91331 11.2634C4.40622 11.2403 4.13061 11.1558 3.94745 11.0845C3.70462 10.99 3.53136 10.8774 3.3492 10.6954C3.16704 10.5135 3.05428 10.3404 2.96016 10.0976C2.88876 9.91454 2.8043 9.63884 2.78125 9.13176C2.75603 8.58353 2.751 8.41884 2.751 7.02991C2.751 5.64098 2.75645 5.47675 2.78125 4.92806C2.80434 4.42098 2.88943 4.14582 2.96016 3.9622C3.0547 3.71938 3.16729 3.54612 3.3492 3.36396C3.53111 3.1818 3.70421 3.06904 3.94745 2.97492C4.13053 2.90352 4.40622 2.81905 4.91331 2.796C5.46154 2.77079 5.62622 2.76575 7.01453 2.76575C8.40284 2.76575 8.56769 2.77112 9.11638 2.79609C9.62346 2.81918 9.89862 2.90427 10.0822 2.975C10.3251 3.06912 10.4983 3.18213 10.6805 3.36404C10.8626 3.54595 10.975 3.71946 11.0695 3.96229C11.1409 4.14537 11.2254 4.42106 11.2484 4.92814C11.2737 5.47684 11.2787 5.64106 11.2787 7.03C11.2787 8.41893 11.2737 8.58315 11.2484 9.13185C11.2253 9.63893 11.1405 9.91454 11.0695 10.0977C10.975 10.3405 10.8624 10.5138 10.6805 10.6955C10.4986 10.8773 10.3251 10.99 10.0822 11.0846C9.89916 11.156 9.62346 11.2404 9.11638 11.2635C8.56815 11.2887 8.40346 11.2937 7.01453 11.2937C5.6256 11.2937 5.46137 11.2887 4.91331 11.2635V11.2634ZM4.87024 1.86027C4.31656 1.88549 3.93821 1.97328 3.6078 2.10185C3.26582 2.23462 2.97593 2.41275 2.68646 2.70176C2.39699 2.99077 2.21933 3.2807 2.08655 3.6231C1.95798 3.95372 1.87019 4.33185 1.84497 4.88554C1.81934 5.4401 1.81348 5.61739 1.81348 7.02983C1.81348 8.44227 1.81934 8.61956 1.84497 9.17412C1.87019 9.72785 1.95798 10.1059 2.08655 10.4366C2.21933 10.7785 2.39703 11.069 2.68646 11.3579C2.97589 11.6468 3.2654 11.8247 3.6078 11.9578C3.93884 12.0864 4.31656 12.1742 4.87024 12.1994C5.42509 12.2246 5.60209 12.2309 7.01453 12.2309C8.42697 12.2309 8.60427 12.225 9.15882 12.1994C9.71255 12.1742 10.0906 12.0864 10.4213 11.9578C10.7632 11.8247 11.0531 11.6469 11.3426 11.3579C11.6321 11.0689 11.8094 10.7785 11.9425 10.4366C12.0711 10.1059 12.1593 9.7278 12.1841 9.17412C12.2093 8.61915 12.2152 8.44227 12.2152 7.02983C12.2152 5.61739 12.2093 5.4401 12.1841 4.88554C12.1589 4.33181 12.0711 3.95351 11.9425 3.6231C11.8094 3.28112 11.6316 2.99123 11.3426 2.70176C11.0536 2.41229 10.7632 2.23462 10.4217 2.10185C10.0906 1.97328 9.71251 1.88507 9.15924 1.86027C8.6046 1.83493 8.42739 1.82877 7.01516 1.82877C5.60292 1.82877 5.4253 1.83464 4.87045 1.86027" fill="white"/>
<defs>
<radialGradient id="paint0_radial" cx="0" cy="0" r="1" gradientUnits="userSpaceOnUse" gradientTransform="translate(0.906066 13.6933) scale(17.7748)">
<stop offset="0.09" stop-color="#FA8F21"/>
<stop offset="0.78" stop-color="#D82D7E"/>
</radialGradient>
<radialGradient id="paint1_radial" cx="0" cy="0" r="1" gradientUnits="userSpaceOnUse" gradientTransform="translate(9.69731 13.2438) scale(15.642)">
<stop offset="0.64" stop-color="#8C3AAA" stop-opacity="0"/>
<stop offset="1" stop-color="#8C3AAA"/>
</radialGradient>
</defs>
</svg>
