<svg width="14" height="14" viewBox="0 0 14 14" fill="none" xmlns="http://www.w3.org/2000/svg">
<path d="M0 1.02685C0 0.475515 0.463422 0.0279999 1.03469 0.0279999H12.9653C13.5368 0.0279999 14 0.475515 14 1.02685V12.9733C14 13.5248 13.5368 13.972 12.9653 13.972H1.03469C0.463477 13.972 0 13.5249 0 12.9735V1.02668V1.02685Z" fill="#006699"/>
<path d="M4.25446 11.6973V5.41965H2.1595V11.6973H4.25468H4.25446ZM3.20742 4.56269C3.93782 4.56269 4.39255 4.08064 4.39255 3.47822C4.37888 2.86207 3.93782 2.39347 3.22131 2.39347C2.5043 2.39347 2.03601 2.86207 2.03601 3.47816C2.03601 4.08059 2.49057 4.56263 3.19369 4.56263H3.20725L3.20742 4.56269ZM5.41406 11.6973H7.50886V8.19194C7.50886 8.00457 7.52254 7.81671 7.57788 7.68288C7.72926 7.30786 8.07395 6.91966 8.65282 6.91966C9.41068 6.91966 9.71403 7.49529 9.71403 8.33928V11.6973H11.8088V8.09787C11.8088 6.16973 10.7754 5.27247 9.39712 5.27247C8.26711 5.27247 7.77082 5.90153 7.49508 6.32998H7.50903V5.41986H5.41417C5.44151 6.00878 5.414 11.6975 5.414 11.6975L5.41406 11.6973Z" fill="white"/>
</svg>
