<svg width="17" height="16" viewBox="0 0 17 16" fill="none" xmlns="http://www.w3.org/2000/svg">
<g clip-path="url(#clip0)">
<path fill-rule="evenodd" clip-rule="evenodd" d="M16.8536 1.08426C16.8536 0.485427 16.3682 0 15.7693 0H1.93794C1.3391 0 0.853638 0.485427 0.853638 1.08426V14.9157C0.853638 15.5146 1.3391 16 1.93794 16H15.7693C16.3682 16 16.8536 15.5146 16.8536 14.9157V1.08426Z" fill="white"/>
<path d="M15.1373 6.02416C15.087 5.69746 14.7226 5.52154 14.4713 5.35819C14.0189 5.05661 13.5791 4.76761 13.1268 4.46603C12.0587 3.7498 10.9781 3.03356 9.91 2.31732C9.65868 2.15397 9.40737 1.97805 9.15606 1.8147C8.98014 1.68905 8.7414 1.68905 8.55292 1.8147C7.83668 2.29219 7.10788 2.78225 6.39164 3.25974L3.22512 5.37075C2.94868 5.54667 2.58428 5.72259 2.57171 6.09955C2.55915 6.51422 2.57171 6.94145 2.57171 7.35611V9.3666C2.57171 9.731 2.49632 10.1582 2.83559 10.3844C3.63978 10.9373 4.45655 11.465 5.27331 12.0054C6.27855 12.6713 7.28379 13.3499 8.28904 14.0159C8.56548 14.2043 8.84192 14.4054 9.18119 14.1792C9.4702 13.9907 9.74664 13.8022 10.0357 13.6138C11.154 12.8724 12.2723 12.1185 13.3907 11.3771L14.6346 10.5478C14.71 10.4975 14.798 10.4472 14.8734 10.3844C15.0493 10.2588 15.1247 10.0828 15.1247 9.86922V6.41369C15.1373 6.27547 15.1498 6.14982 15.1373 6.02416C15.1373 6.04929 15.1373 6.01159 15.1373 6.02416ZM9.39481 3.2723L13.6294 6.09955L11.7446 7.36867L9.39481 5.79798V3.2723ZM8.31417 3.2723V5.78541L5.97698 7.35611L4.07958 6.09955L8.31417 3.2723ZM3.65235 7.1048L4.99686 8.00952L3.65235 8.91424V7.1048ZM8.31417 12.7467L4.07958 9.91948L5.96441 8.65036L8.3016 10.2211V12.7467H8.31417ZM8.85449 9.2912L6.94452 8.00952L8.85449 6.72783L10.7645 8.00952L8.85449 9.2912ZM9.39481 12.7467V10.2336L11.732 8.66293L13.6168 9.93205L9.39481 12.7467ZM14.0566 8.91424L12.7121 8.00952L14.0692 7.1048L14.0566 8.91424Z" fill="black"/>
</g>
<defs>
<clipPath id="clip0">
<rect width="16" height="16" fill="white" transform="translate(0.853638)"/>
</clipPath>
</defs>
</svg>
